<svg width="30" height="30" viewBox="0 0 30 30" fill="none" xmlns="http://www.w3.org/2000/svg">
<path d="M0 30L2.11903 22.2969C0.811927 20.0424 0.124395 17.485 0.125355 14.8649C0.128717 6.66845 6.82922 0 15.0628 0C19.0583 0.0016734 22.8086 1.5498 25.6289 4.35965C28.4489 7.16951 30.0014 10.9045 30 14.8769C29.9964 23.0731 23.2949 29.7425 15.0628 29.7425C15.0623 29.7425 15.063 29.7425 15.0628 29.7425H15.0563C12.5564 29.7416 10.1002 29.1174 7.91851 27.9329L0 30ZM8.28521 25.2418L8.73884 25.5093C10.6446 26.6353 12.8297 27.2308 15.058 27.232H15.0628C21.9055 27.232 27.4749 21.6888 27.4778 14.8759C27.479 11.5743 26.1889 8.46973 23.8449 6.1344C21.5006 3.79907 18.3837 2.51223 15.0674 2.5108C8.21917 2.5108 2.64999 8.05329 2.64735 14.8659C2.64639 17.2005 3.30246 19.4739 4.54545 21.4413L4.84082 21.9089L3.58631 26.4682L8.28521 25.2418Z" fill="white"/>
<path fill-rule="evenodd" clip-rule="evenodd" d="M11.3295 8.65072C11.0499 8.03204 10.7555 8.01961 10.4895 8.00885C10.2719 7.99953 10.0229 8 9.77431 8C9.52552 8 9.12112 8.09324 8.77915 8.46497C8.43695 8.8367 7.47253 9.73556 7.47253 11.5636C7.47253 13.3919 8.81013 15.1583 8.99672 15.4065C9.18331 15.6544 11.5787 19.5257 15.3723 21.015C18.5251 22.2528 19.1665 22.0066 19.851 21.9447C20.5354 21.8828 22.0591 21.0458 22.3701 20.1783C22.6813 19.3107 22.6813 18.5673 22.5879 18.4117C22.4945 18.257 22.2457 18.164 21.8725 17.9782C21.4993 17.7925 19.6644 16.8934 19.3222 16.7696C18.98 16.6455 18.7312 16.5838 18.4824 16.9558C18.2334 17.3273 17.5187 18.164 17.3009 18.4117C17.0831 18.66 16.8653 18.6911 16.4921 18.5051C16.1189 18.3189 14.9167 17.9268 13.4908 16.661C12.3813 15.6764 11.6321 14.46 11.4142 14.0881C11.1967 13.7166 11.4106 13.533 11.5783 13.33C11.8801 12.9645 12.3866 12.3073 12.511 12.0597C12.6354 11.8115 12.5732 11.5947 12.48 11.4087C12.3866 11.223 11.6611 9.38558 11.3295 8.65072Z" fill="white"/>
</svg>
